<mxfile host="app.diagrams.net" modified="2021-07-23T00:45:43.670Z" agent="5.0 (Windows NT 10.0; Win64; x64) AppleWebKit/537.36 (KHTML, like Gecko) Chrome/91.0.4472.164 Safari/537.36" etag="3CChFiP59_9tL10TL9Bt" version="14.9.2" type="github">
  <diagram id="Yu328X680OugWqZUudf0" name="Page-1">
    <mxGraphModel dx="868" dy="450" grid="1" gridSize="10" guides="1" tooltips="1" connect="1" arrows="1" fold="1" page="1" pageScale="1" pageWidth="827" pageHeight="1169" math="0" shadow="0">
      <root>
        <mxCell id="0" />
        <mxCell id="1" parent="0" />
        <mxCell id="p6f384oPT3KS2mRiE0gc-5" style="edgeStyle=orthogonalEdgeStyle;rounded=0;orthogonalLoop=1;jettySize=auto;html=1;" parent="1" source="p6f384oPT3KS2mRiE0gc-1" target="p6f384oPT3KS2mRiE0gc-2" edge="1">
          <mxGeometry relative="1" as="geometry" />
        </mxCell>
        <mxCell id="p6f384oPT3KS2mRiE0gc-1" value="" style="verticalLabelPosition=bottom;verticalAlign=top;html=1;shape=mxgraph.basic.rect;fillColor2=none;strokeWidth=1;size=20;indent=5;" parent="1" vertex="1">
          <mxGeometry x="100" y="80" width="120" height="60" as="geometry" />
        </mxCell>
        <mxCell id="p6f384oPT3KS2mRiE0gc-6" style="edgeStyle=orthogonalEdgeStyle;rounded=0;orthogonalLoop=1;jettySize=auto;html=1;" parent="1" source="p6f384oPT3KS2mRiE0gc-2" target="p6f384oPT3KS2mRiE0gc-4" edge="1">
          <mxGeometry relative="1" as="geometry" />
        </mxCell>
        <mxCell id="p6f384oPT3KS2mRiE0gc-2" value="" style="verticalLabelPosition=bottom;verticalAlign=top;html=1;shape=mxgraph.basic.rect;fillColor2=none;strokeWidth=1;size=20;indent=5;" parent="1" vertex="1">
          <mxGeometry x="310" y="80" width="120" height="60" as="geometry" />
        </mxCell>
        <mxCell id="p6f384oPT3KS2mRiE0gc-3" value="" style="verticalLabelPosition=bottom;verticalAlign=top;html=1;shape=mxgraph.basic.rect;fillColor2=none;strokeWidth=1;size=20;indent=5;" parent="1" vertex="1">
          <mxGeometry x="100" y="170" width="520" height="270" as="geometry" />
        </mxCell>
        <mxCell id="p6f384oPT3KS2mRiE0gc-22" style="edgeStyle=orthogonalEdgeStyle;rounded=0;orthogonalLoop=1;jettySize=auto;html=1;" parent="1" source="p6f384oPT3KS2mRiE0gc-4" target="p6f384oPT3KS2mRiE0gc-2" edge="1">
          <mxGeometry relative="1" as="geometry" />
        </mxCell>
        <mxCell id="p6f384oPT3KS2mRiE0gc-4" value="" style="verticalLabelPosition=bottom;verticalAlign=top;html=1;shape=mxgraph.basic.rect;fillColor2=none;strokeWidth=1;size=20;indent=5;" parent="1" vertex="1">
          <mxGeometry x="500" y="80" width="120" height="60" as="geometry" />
        </mxCell>
        <mxCell id="p6f384oPT3KS2mRiE0gc-21" style="edgeStyle=orthogonalEdgeStyle;rounded=0;orthogonalLoop=1;jettySize=auto;html=1;exitX=0.52;exitY=0.792;exitDx=0;exitDy=0;exitPerimeter=0;" parent="1" source="vh_N0vWOaZYFFKLZKFHB-8" target="p6f384oPT3KS2mRiE0gc-19" edge="1">
          <mxGeometry relative="1" as="geometry">
            <Array as="points">
              <mxPoint x="190" y="374" />
              <mxPoint x="190" y="490" />
              <mxPoint x="810" y="490" />
              <mxPoint x="810" y="230" />
            </Array>
            <mxPoint x="190" y="410" as="sourcePoint" />
          </mxGeometry>
        </mxCell>
        <mxCell id="p6f384oPT3KS2mRiE0gc-14" style="edgeStyle=orthogonalEdgeStyle;rounded=0;orthogonalLoop=1;jettySize=auto;html=1;entryX=0.005;entryY=0.63;entryDx=0;entryDy=0;entryPerimeter=0;exitX=0.58;exitY=0.542;exitDx=0;exitDy=0;exitPerimeter=0;" parent="1" source="vh_N0vWOaZYFFKLZKFHB-9" target="vh_N0vWOaZYFFKLZKFHB-10" edge="1">
          <mxGeometry relative="1" as="geometry">
            <mxPoint x="360" y="360" as="sourcePoint" />
            <mxPoint x="380" y="360" as="targetPoint" />
          </mxGeometry>
        </mxCell>
        <mxCell id="p6f384oPT3KS2mRiE0gc-20" style="edgeStyle=orthogonalEdgeStyle;rounded=0;orthogonalLoop=1;jettySize=auto;html=1;exitX=0.44;exitY=0.854;exitDx=0;exitDy=0;exitPerimeter=0;" parent="1" source="vh_N0vWOaZYFFKLZKFHB-9" target="p6f384oPT3KS2mRiE0gc-18" edge="1">
          <mxGeometry relative="1" as="geometry">
            <Array as="points">
              <mxPoint x="310" y="377" />
              <mxPoint x="310" y="460" />
              <mxPoint x="720" y="460" />
            </Array>
            <mxPoint x="310" y="410" as="sourcePoint" />
          </mxGeometry>
        </mxCell>
        <mxCell id="p6f384oPT3KS2mRiE0gc-17" style="edgeStyle=orthogonalEdgeStyle;rounded=0;orthogonalLoop=1;jettySize=auto;html=1;" parent="1" source="p6f384oPT3KS2mRiE0gc-11" target="p6f384oPT3KS2mRiE0gc-1" edge="1">
          <mxGeometry relative="1" as="geometry" />
        </mxCell>
        <mxCell id="vh_N0vWOaZYFFKLZKFHB-12" style="edgeStyle=orthogonalEdgeStyle;rounded=0;orthogonalLoop=1;jettySize=auto;html=1;entryX=0.5;entryY=0;entryDx=0;entryDy=0;entryPerimeter=0;" edge="1" parent="1" source="p6f384oPT3KS2mRiE0gc-11" target="vh_N0vWOaZYFFKLZKFHB-8">
          <mxGeometry relative="1" as="geometry" />
        </mxCell>
        <mxCell id="p6f384oPT3KS2mRiE0gc-11" value="" style="verticalLabelPosition=bottom;verticalAlign=top;html=1;shape=mxgraph.basic.rect;fillColor2=none;strokeWidth=1;size=15;indent=5;" parent="1" vertex="1">
          <mxGeometry x="140" y="250" width="210" height="30" as="geometry" />
        </mxCell>
        <mxCell id="p6f384oPT3KS2mRiE0gc-18" value="" style="shape=cylinder3;whiteSpace=wrap;html=1;boundedLbl=1;backgroundOutline=1;size=15;" parent="1" vertex="1">
          <mxGeometry x="690" y="330" width="60" height="80" as="geometry" />
        </mxCell>
        <mxCell id="p6f384oPT3KS2mRiE0gc-19" value="" style="verticalLabelPosition=bottom;verticalAlign=top;html=1;shape=mxgraph.basic.layered_rect;dx=10;outlineConnect=0;" parent="1" vertex="1">
          <mxGeometry x="680" y="200" width="100" height="60" as="geometry" />
        </mxCell>
        <mxCell id="vh_N0vWOaZYFFKLZKFHB-7" value="" style="html=1;dashed=0;whitespace=wrap;fillColor=#2875E2;strokeColor=#ffffff;points=[[0.005,0.63,0],[0.1,0.2,0],[0.9,0.2,0],[0.5,0,0],[0.995,0.63,0],[0.72,0.99,0],[0.5,1,0],[0.28,0.99,0]];shape=mxgraph.kubernetes.icon;prIcon=api" vertex="1" parent="1">
          <mxGeometry x="525" y="336" width="50" height="48" as="geometry" />
        </mxCell>
        <mxCell id="vh_N0vWOaZYFFKLZKFHB-8" value="" style="html=1;dashed=0;whitespace=wrap;fillColor=#2875E2;strokeColor=#ffffff;points=[[0.005,0.63,0],[0.1,0.2,0],[0.9,0.2,0],[0.5,0,0],[0.995,0.63,0],[0.72,0.99,0],[0.5,1,0],[0.28,0.99,0]];shape=mxgraph.kubernetes.icon;prIcon=api" vertex="1" parent="1">
          <mxGeometry x="170" y="336" width="50" height="48" as="geometry" />
        </mxCell>
        <mxCell id="vh_N0vWOaZYFFKLZKFHB-13" style="edgeStyle=orthogonalEdgeStyle;rounded=0;orthogonalLoop=1;jettySize=auto;html=1;entryX=0.89;entryY=1.1;entryDx=0;entryDy=0;entryPerimeter=0;" edge="1" parent="1" source="vh_N0vWOaZYFFKLZKFHB-9" target="p6f384oPT3KS2mRiE0gc-11">
          <mxGeometry relative="1" as="geometry" />
        </mxCell>
        <mxCell id="vh_N0vWOaZYFFKLZKFHB-9" value="" style="html=1;dashed=0;whitespace=wrap;fillColor=#2875E2;strokeColor=#ffffff;points=[[0.005,0.63,0],[0.1,0.2,0],[0.9,0.2,0],[0.5,0,0],[0.995,0.63,0],[0.72,0.99,0],[0.5,1,0],[0.28,0.99,0]];shape=mxgraph.kubernetes.icon;prIcon=api" vertex="1" parent="1">
          <mxGeometry x="290" y="336" width="50" height="48" as="geometry" />
        </mxCell>
        <mxCell id="vh_N0vWOaZYFFKLZKFHB-11" style="edgeStyle=orthogonalEdgeStyle;rounded=0;orthogonalLoop=1;jettySize=auto;html=1;entryX=0.005;entryY=0.63;entryDx=0;entryDy=0;entryPerimeter=0;" edge="1" parent="1" source="vh_N0vWOaZYFFKLZKFHB-10" target="vh_N0vWOaZYFFKLZKFHB-7">
          <mxGeometry relative="1" as="geometry" />
        </mxCell>
        <mxCell id="vh_N0vWOaZYFFKLZKFHB-10" value="" style="html=1;dashed=0;whitespace=wrap;fillColor=#2875E2;strokeColor=#ffffff;points=[[0.005,0.63,0],[0.1,0.2,0],[0.9,0.2,0],[0.5,0,0],[0.995,0.63,0],[0.72,0.99,0],[0.5,1,0],[0.28,0.99,0]];shape=mxgraph.kubernetes.icon;prIcon=api" vertex="1" parent="1">
          <mxGeometry x="414" y="336" width="50" height="48" as="geometry" />
        </mxCell>
      </root>
    </mxGraphModel>
  </diagram>
</mxfile>
